# xmcd
# 
# Track frame offsets:
#     150
#     25870
#     42453
#     88384
# 
# Disc length: 1186
# 
# Revision: 0
# Processed by: cddbd v1.5.2PL0 Copyright (c) Steve Scherf et al.
# Submitted via: BonkEnc v1.0.8
# 
DISCID=2f04a004
DTITLE=Vargrimm - Demo 2008
DYEAR=2008
DGENRE=Pagan Metal
TTITLE0=Helias Reich
TTITLE1=Gedanke und Erinnerung
TTITLE2=Vom Vater zum Sohn
TTITLE3=Data track
EXTD=www.asatru-versand.com
EXTT0=
EXTT1=
EXTT2=
EXTT3=
PLAYORDER=
